<svg xmlns="http://www.w3.org/2000/svg" viewBox="0 0 100 100">
  <defs>
    <linearGradient id="grad" x1="0%" y1="0%" x2="100%" y2="100%">
      <stop offset="0%" style="stop-color:#8B5CF6;stop-opacity:1" />
      <stop offset="50%" style="stop-color:#3B82F6;stop-opacity:1" />
      <stop offset="100%" style="stop-color:#22C55E;stop-opacity:1" />
    </linearGradient>
  </defs>
  <rect width="100" height="100" rx="20" fill="#0F172A"/>
  <path d="M50 20 C35 20 25 30 25 42 C25 54 35 62 50 68 C65 62 75 54 75 42 C75 30 65 20 50 20Z" fill="none" stroke="url(#grad)" stroke-width="3"/>
  <circle cx="35" cy="40" r="6" fill="#8B5CF6"/>
  <circle cx="50" cy="35" r="6" fill="#3B82F6"/>
  <circle cx="65" cy="40" r="6" fill="#22C55E"/>
  <circle cx="42" cy="52" r="5" fill="#F59E0B"/>
  <circle cx="58" cy="52" r="5" fill="#EC4899"/>
  <line x1="35" y1="40" x2="50" y2="35" stroke="#64748B" stroke-width="2"/>
  <line x1="50" y1="35" x2="65" y2="40" stroke="#64748B" stroke-width="2"/>
  <line x1="35" y1="40" x2="42" y2="52" stroke="#64748B" stroke-width="2"/>
  <line x1="65" y1="40" x2="58" y2="52" stroke="#64748B" stroke-width="2"/>
  <line x1="42" y1="52" x2="58" y2="52" stroke="#64748B" stroke-width="2"/>
  <text x="50" y="78" text-anchor="middle" fill="white" font-family="sans-serif" font-size="10" font-weight="bold">SB</text>
</svg>